<?xml version="1.0" encoding="UTF-8"?>
<svg id="layer_1" xmlns="http://www.w3.org/2000/svg" xmlns:xlink="http://www.w3.org/1999/xlink" version="1.1" viewBox="0 0 300 300">
  <defs>
    <style>
      .st0 {
        fill: url(#unnamed_gradient_273);
      }
      .st1 {
        fill: url(#unnamed_gradient_272);
      }
      .st2 {
        fill: url(#unnamed_gradient_274);
      }
      .st3 {
        fill: url(#unnamed_gradient_271);
      }
      .st4 {
        fill: #666;
      }
      .st5 {
        fill: url(#unnamed_gradient_27);
      }
      .st6 {
        fill: url(#unnamed_gradient_21);
      }
      
      /* Dark mode color adjustments */
      @media (prefers-color-scheme: dark) {
        .st0 {
          fill: url(#dark_gradient_273);
        }
        .st1 {
          fill: url(#dark_gradient_272);
        }
        .st2 {
          fill: url(#dark_gradient_274);
        }
        .st3 {
          fill: url(#dark_gradient_271);
        }
        .st4 {
          fill: #f8fafc;
        }
        .st5 {
          fill: url(#dark_gradient_27);
        }
        .st6 {
          fill: url(#dark_gradient_21);
        }
      }
    </style>
    <!-- Light mode gradients -->
    <radialGradient
      id="unnamed_gradient_27"
      cx="238.6"
      cy="151.7"
      fx="238.6"
      fy="151.7"
      r="124.7"
      gradientTransform="translate(0 302) scale(1 -1)"
      gradientUnits="userSpaceOnUse"
    >
      <stop offset=".7" stop-color="#666" stop-opacity=".4" />
      <stop offset=".7" stop-color="#666" stop-opacity=".6" />
      <stop offset="1" stop-color="#666" />
    </radialGradient>

    <!-- Dark mode gradients -->
    <radialGradient
      id="dark_gradient_27"
      cx="238.6"
      cy="151.7"
      fx="238.6"
      fy="151.7"
      r="124.7"
      gradientTransform="translate(0 302) scale(1 -1)"
      gradientUnits="userSpaceOnUse"
    >
      <stop offset=".7" stop-color="#f8fafc" stop-opacity=".4" />
      <stop offset=".7" stop-color="#f1f5f9" stop-opacity=".6" />
      <stop offset="1" stop-color="#e2e8f0" />
    </radialGradient>

    <radialGradient
      id="unnamed_gradient_271"
      cx="238.7"
      cy="151.6"
      fx="238.7"
      fy="151.6"
      r="124.7"
      gradientTransform="translate(206.1 355.8) rotate(-60) scale(1 -1)"
      xlink:href="#unnamed_gradient_27"
    />
    <radialGradient
      id="dark_gradient_271"
      cx="238.7"
      cy="151.6"
      fx="238.7"
      fy="151.6"
      r="124.7"
      gradientTransform="translate(206.1 355.8) rotate(-60) scale(1 -1)"
      xlink:href="#dark_gradient_27"
    />

    <radialGradient
      id="unnamed_gradient_272"
      cx="238.7"
      cy="151.6"
      fx="238.7"
      fy="151.6"
      r="124.7"
      gradientTransform="translate(355.7 204.3) rotate(-120) scale(1 -1)"
      xlink:href="#unnamed_gradient_27"
    />
    <radialGradient
      id="dark_gradient_272"
      cx="238.7"
      cy="151.6"
      fx="238.7"
      fy="151.6"
      r="124.7"
      gradientTransform="translate(355.7 204.3) rotate(-120) scale(1 -1)"
      xlink:href="#dark_gradient_27"
    />

    <radialGradient
      id="unnamed_gradient_273"
      cx="238.6"
      cy="151.6"
      fx="238.6"
      fy="151.6"
      r="124.7"
      gradientTransform="translate(299.3 -1.1) rotate(-180) scale(1 -1)"
      xlink:href="#unnamed_gradient_27"
    />
    <radialGradient
      id="dark_gradient_273"
      cx="238.6"
      cy="151.6"
      fx="238.6"
      fy="151.6"
      r="124.7"
      gradientTransform="translate(299.3 -1.1) rotate(-180) scale(1 -1)"
      xlink:href="#dark_gradient_27"
    />

    <radialGradient
      id="unnamed_gradient_274"
      cx="238.6"
      cy="151.6"
      fx="238.6"
      fy="151.6"
      r="124.7"
      gradientTransform="translate(93.2 -54.9) rotate(120) scale(1 -1)"
      xlink:href="#unnamed_gradient_27"
    />
    <radialGradient
      id="dark_gradient_274"
      cx="238.6"
      cy="151.6"
      fx="238.6"
      fy="151.6"
      r="124.7"
      gradientTransform="translate(93.2 -54.9) rotate(120) scale(1 -1)"
      xlink:href="#dark_gradient_27"
    />

    <radialGradient
      id="unnamed_gradient_21"
      cx="-1879.4"
      cy="653.5"
      fx="-1879.4"
      fy="653.5"
      r="124.7"
      gradientTransform="translate(567.9 2181.8) rotate(60) scale(1 -1)"
      gradientUnits="userSpaceOnUse"
    >
      <stop offset=".7" stop-color="#666" stop-opacity=".4" />
      <stop offset=".7" stop-color="#666" stop-opacity=".6" />
      <stop offset="1" stop-color="#666" />
    </radialGradient>
    <radialGradient
      id="dark_gradient_21"
      cx="-1879.4"
      cy="653.5"
      fx="-1879.4"
      fy="653.5"
      r="124.7"
      gradientTransform="translate(567.9 2181.8) rotate(60) scale(1 -1)"
      gradientUnits="userSpaceOnUse"
    >
      <stop offset=".7" stop-color="#f8fafc" stop-opacity=".4" />
      <stop offset=".7" stop-color="#f1f5f9" stop-opacity=".6" />
      <stop offset="1" stop-color="#e2e8f0" />
    </radialGradient>
  </defs>
  <circle class="st4" cx="149.6" cy="150.4" r="34.1" />
  <g>
    <path
      class="st5"
      d="M118.7,164.7s-6.9-15-6.9-39.5v-27.3c0-2.1,1.1-4.1,3-5.2l31.8-18.5c1.9-1.1,4.2-1.1,6.1,0l8.1,4.9-33.5,73.4-8.5,12.2h0Z"
    />
    <path
      class="st3"
      d="M146.5,184.4s-16.5-1.5-37.7-13.7l-23.7-13.7c-1.9-1.1-3-3-3-5.2v-36.8c-.1-2.2,1.1-4.2,3-5.3l8.2-4.6,46.8,65.7,6.3,13.5h0Z"
    />
    <path
      class="st1"
      d="M177.5,170.1s-9.5,13.5-30.8,25.8l-23.7,13.7c-1.9,1.1-4.1,1.1-6,0l-32-18.3c-1.9-1.1-3.1-3.1-3-5.3l.2-9.4,80.3-7.7,14.9,1.3h0Z"
    />
    <path
      class="st0"
      d="M180.6,136.1s6.9,15,6.9,39.5c0,15.3,0,27.3,0,27.3,0,2.1-1.1,4.1-3,5.2l-31.8,18.5c-1.9,1.1-4.2,1.1-6.1,0l-8.1-4.9,33.5-73.4,8.5-12.2h0Z"
    />
    <path
      class="st2"
      d="M152.7,116.5s16.5,1.5,37.7,13.7,23.7,13.7,23.7,13.7c1.9,1.1,3,3,3,5.2v36.8c.1,2.2-1.1,4.2-3,5.3l-8.2,4.6-46.8-65.7-6.3-13.5h0Z"
    />
    <path
      class="st6"
      d="M121.7,130.7s9.6-13.5,30.7-25.8c13.3-7.7,23.7-13.7,23.7-13.7,1.8-1.1,4.1-1.1,6,0l32,18.3c1.9,1.1,3.1,3.1,3,5.3l-.2,9.4-80.3,7.7-14.9-1.3h0Z"
    />
  </g>
</svg> 